# xmcd
#
# Track frame offsets:
#	150
#	13451
#	31869
#	52144
#	67125
#	79514
#	96880
#	113377
#	128421
#	145413
#	161266
#	172744
#
# Disc length: 2534 seconds
#
# Revision: 0
# Processed by: cddbd v1.4PL0 Copyright (c) Steve Scherf et al.
# Submitted via: dBpowerAMP V4.0
#
DISCID=9309e40c
DTITLE=Pepe Aguilar - Colección de oro Disco 2
DYEAR=2002
DGENRE=Ranchera
TTITLE0=Salado
TTITLE1=Enamorarse Asi
TTITLE2=Amor con amor se paga
TTITLE3=Esclavo y Amo
TTITLE4=Por una Mujer Bonita
TTITLE5=Tenías Razón
TTITLE6=Me esta llorando el corazon
TTITLE7=Directo al Corazón
TTITLE8=Me estoy Acostumbrando a ti
TTITLE9=Si tu te vas
TTITLE10=Como un loco
TTITLE11=Que Bueno
EXTD=Colección de oro Disco 2
EXTT0=
EXTT1=
EXTT2=
EXTT3=
EXTT4=
EXTT5=
EXTT6=
EXTT7=
EXTT8=
EXTT9=
EXTT10=
EXTT11=
PLAYORDER=
